<svg width="60" height="60" viewBox="0 0 60 60" fill="none" xmlns="http://www.w3.org/2000/svg">
<rect width="60" height="60" fill="#FF5A00"/>
<path d="M34.4385 37.7051C32.6221 37.832 32.7979 36.8603 33.877 35.4492C36.3379 32.168 40.8936 27.71 41.0986 24.4531C41.3818 20.2246 37.1289 18.916 32.749 18.916C29.7022 18.9941 26.5479 19.8389 24.3994 20.6055C16.9971 23.2178 12.3584 27.3193 9.41407 31.9336C6.36719 36.4941 7.31446 40.8789 13.8965 41.0059C18.8672 40.8008 22.2217 39.4189 25.6006 37.6758C25.625 37.6758 16.2012 40.3662 12.7148 38.3936C12.3291 38.1885 11.9482 37.9053 11.8457 37.1143C11.8457 35.498 14.5117 33.8086 16.0742 33.2715V30.5029C19.2236 31.6064 22.9395 31.2988 26.1182 28.9404C26.2207 29.2236 26.3232 29.5801 26.2988 29.9658H26.8359C26.9629 28.8623 26.2207 27.7881 24.9902 27.71C25.3467 27.9932 25.6055 28.2227 25.7324 28.4277L25.6836 28.4766L25.6592 28.501C21.5625 31.3721 17.5879 30.0391 17.207 29.9609L19.4873 27.7295L18.8477 26.1133C23.3838 24.5264 27.124 23.3691 33.3447 22.2705L31.9531 21.1475L32.6709 20.7129C36.3574 21.7383 38.8428 22.5049 38.7158 24.4531C38.667 24.7852 38.5352 25.1709 38.3301 25.5811C37.2314 27.7588 34.0039 31.2695 32.6953 32.7832C31.8506 33.7842 31.0059 34.707 30.415 35.6299C29.751 36.5771 29.4141 37.4512 29.3897 38.2422C29.5166 44.6777 48.501 35.2197 52.2412 32.7295C46.7871 35.0635 40.8691 37.2949 34.4385 37.7051ZM38.5889 22.915C38.7256 23.1689 38.7891 23.4814 38.7891 23.8477C38.7842 23.5156 38.7207 23.1982 38.5889 22.915Z" fill="white"/>
</svg>
