<svg width="60" height="60" viewBox="0 0 60 60" fill="none" xmlns="http://www.w3.org/2000/svg">
<rect width="60" height="60" fill="#104076"/>
<g clip-path="url(#clip0_150_734)">
<mask id="mask0_150_734" style="mask-type:luminance" maskUnits="userSpaceOnUse" x="7" y="23" width="46" height="14">
<path d="M7.99623 23.9904V36.0109H52.009V23.9904" fill="white"/>
</mask>
<g mask="url(#mask0_150_734)">
<mask id="mask1_150_734" style="mask-type:luminance" maskUnits="userSpaceOnUse" x="8" y="24" width="44" height="12">
<path d="M8 24H52V36H8V24Z" fill="white"/>
</mask>
<g mask="url(#mask1_150_734)">
<mask id="mask2_150_734" style="mask-type:luminance" maskUnits="userSpaceOnUse" x="-11" y="7" width="232" height="297">
<path d="M-10.0977 7.84698H220.648V303.369H-10.0977V7.84698Z" fill="white"/>
</mask>
<g mask="url(#mask2_150_734)">
<path d="M29.0144 33.4895C27.009 33.4895 25.2094 32.3623 25.2094 30.7861C25.2094 29.2093 27.009 28.0809 29.0288 28.0809C29.9069 28.0809 30.7269 28.3003 31.6186 28.7925L30.9901 29.5917C30.4185 29.3182 29.7455 29.1544 29.0288 29.1544C28.1797 29.1544 27.1994 29.6249 27.1994 30.7861C27.1994 31.9466 28.1653 32.4167 29.0288 32.4167C29.7455 32.4167 30.4332 32.2746 31.0184 32.0223L31.648 32.8656C30.9019 33.2604 29.9943 33.4895 29.0144 33.4895Z" fill="white"/>
<path d="M40.4699 33.469C42.4889 33.469 44.2893 32.3414 44.2893 30.7656C44.2893 29.1888 42.4889 28.0604 40.4699 28.0604C38.4501 28.0604 36.6498 29.1888 36.6498 30.7656C36.6498 32.3414 38.4501 33.469 40.4699 33.469ZM42.2993 30.7656C42.2993 31.9261 41.319 32.3962 40.4699 32.3962C39.6204 32.3962 38.6405 31.9261 38.6405 30.7656C38.6405 29.6041 39.6204 29.1339 40.4699 29.1339C41.319 29.1339 42.2993 29.6041 42.2993 30.7656Z" fill="white"/>
<path d="M45.1021 33.3384H46.9884V30.119C46.9884 29.6843 47.3297 29.1727 47.9401 29.1693C48.3665 29.1727 48.7756 29.4615 48.7756 29.8279L48.7718 33.3384H50.663V29.7283C50.663 28.7776 49.633 27.9839 48.4042 27.9839C48.3922 27.9839 48.3805 27.9854 48.3684 27.9858C48.3563 27.9854 48.3446 27.9839 48.333 27.9839C47.8251 27.9839 47.3432 28.1305 46.9496 28.3761C46.9462 28.3623 46.8403 28.0171 45.1021 28.0171V33.3384Z" fill="white"/>
<path d="M22.4548 33.3384H24.3026V28.1925H22.4548V33.3384Z" fill="white"/>
<path d="M32.5292 33.3384H34.3778V30.2179C34.3778 29.7249 34.9625 29.3305 35.5922 29.3305C35.8998 29.3305 36.1894 29.3914 36.4326 29.4981V28.1447C36.2147 28.1119 35.9794 28.094 35.7717 28.094C35.2762 28.094 34.7793 28.2361 34.3725 28.4749C34.3423 28.4141 34.1157 28.1264 32.5292 28.1264V33.3384Z" fill="white"/>
<path d="M18.9295 31.2873L18.9291 33.3387H20.8215V29.5932C20.2732 30.1529 19.641 30.7227 18.9295 31.2873Z" fill="white"/>
<path d="M20.8215 29.5932C22.9053 27.4656 23.7684 25.488 23.0965 24.5361C22.3952 23.5421 20.2163 23.9447 17.3919 25.4216C17.2656 25.4828 17.1537 25.5477 17.0711 25.604C16.9346 25.6977 17.0142 25.766 17.1148 25.7298C17.2181 25.6929 17.3358 25.6481 17.4685 25.5835C19.5855 24.5899 21.237 24.4115 21.8824 25.1052C22.8661 26.1615 20.8516 29.6235 17.3633 32.1843C16.8977 32.5261 16.179 33.0264 15.7111 33.3044C15.6795 33.3238 15.6482 33.3429 15.6176 33.3623C15.494 33.4425 15.3839 33.5171 15.2971 33.5843C15.2127 33.6492 15.2289 33.7526 15.3812 33.6876C15.474 33.6485 15.5867 33.5891 15.7066 33.5164C15.7337 33.4999 15.7605 33.485 15.7888 33.4679C16.3148 33.1518 17.0956 32.6182 17.6291 32.2496C18.088 31.9324 18.5215 31.6104 18.9295 31.2873C19.641 30.7227 20.2732 30.1526 20.8215 29.5932Z" fill="white"/>
<path d="M11.5324 36.0107H13.4248V34.0701C13.9421 33.7675 14.4658 33.4357 14.9804 33.0884C15.0962 33.0096 15.1987 32.9313 15.273 32.8641C15.3955 32.7533 15.3069 32.6962 15.2123 32.7454C15.115 32.7962 15 32.8648 14.8756 32.9432C11.9525 34.7936 9.97905 35.3581 9.25024 34.379C8.6172 33.529 9.6548 31.8857 11.5324 30.0298V34.3376C12.0652 34.1585 12.6948 33.8731 13.4244 33.4716L13.424 29.4749L13.8403 30.3514C14.2965 31.3193 15.1245 31.8981 16.1771 31.8981C17.2294 31.8981 18.0574 31.3193 18.5136 30.3514L18.9299 29.4749L18.9295 30.4947C19.6066 29.8447 20.1846 29.1958 20.6231 28.5682C20.6778 28.4906 20.6729 28.4253 20.6431 28.3537C20.3513 27.751 19.7303 27.3357 19.0087 27.3357C18.2949 27.3357 17.6751 27.7454 17.378 28.338L16.5862 30.0003C16.5044 30.1622 16.3536 30.2522 16.1771 30.2522C16.0011 30.2522 15.8495 30.1622 15.7677 30.0003L14.9759 28.338C14.8251 28.0369 14.5906 27.7831 14.3029 27.6063C14.882 27.1514 15.4449 26.7451 15.9992 26.4122C16.1251 26.3365 16.2284 26.2607 16.3155 26.1947C16.4011 26.1301 16.3853 26.0268 16.2326 26.0902C16.1398 26.1287 16.0195 26.1872 15.8993 26.2596C15.333 26.5992 14.7542 26.9466 14.2007 27.3208C14.1336 27.366 14.0672 27.4115 14.0009 27.457C13.7973 27.3787 13.5763 27.3357 13.3452 27.3357C12.3423 27.3357 11.5324 28.1376 11.5324 29.1301V29.3772C8.85926 31.7361 7.45593 34.0719 8.18927 35.1119C8.72767 35.8745 10.0043 35.6984 11.5324 35.0413V36.0107Z" fill="white"/>
<path d="M51.3858 28.641H51.4544C51.5325 28.641 51.5985 28.613 51.5985 28.5406C51.5985 28.4891 51.5608 28.4376 51.4544 28.4376C51.4235 28.4376 51.4024 28.4399 51.3858 28.4421V28.641ZM51.3858 28.966H51.2912V28.379C51.3409 28.3723 51.3881 28.3652 51.4593 28.3652C51.5491 28.3652 51.6079 28.3839 51.6433 28.4096C51.6788 28.4354 51.6976 28.4749 51.6976 28.5309C51.6976 28.6081 51.6456 28.6548 51.5819 28.6738V28.6783C51.6339 28.6876 51.6693 28.7346 51.681 28.8208C51.6954 28.9119 51.7093 28.9473 51.7187 28.966H51.6196C51.6056 28.9473 51.5913 28.8936 51.5796 28.8163C51.5657 28.7413 51.5276 28.7134 51.4518 28.7134H51.3858V28.966ZM51.485 28.2156C51.2512 28.2156 51.0601 28.4141 51.0601 28.6596C51.0601 28.9096 51.2512 29.1059 51.4872 29.1059C51.7236 29.1085 51.9125 28.9096 51.9125 28.6619C51.9125 28.4141 51.7236 28.2156 51.4872 28.2156H51.485ZM51.4872 28.1335C51.7779 28.1335 52.0094 28.3675 52.0094 28.6596C52.0094 28.9566 51.7779 29.188 51.485 29.188C51.1947 29.188 50.9586 28.9566 50.9586 28.6596C50.9586 28.3675 51.1947 28.1335 51.485 28.1335H51.4872Z" fill="white"/>
</g>
</g>
</g>
</g>
<defs>
<clipPath id="clip0_150_734">
<rect width="44" height="12" fill="white" transform="translate(8 24)"/>
</clipPath>
</defs>
</svg>
